<svg xmlns="http://www.w3.org/2000/svg" xmlns:xlink="http://www.w3.org/1999/xlink" width="57" height="57" viewBox="0 0 57 57"><defs><style>.a{fill:#00af5d;}.b{filter:url(#a);}</style><filter id="a" x="0" y="0" width="57" height="57" filterUnits="userSpaceOnUse"><feOffset dy="3" input="SourceAlpha"/><feGaussianBlur stdDeviation="1.5" result="b"/><feFlood flood-opacity="0.161"/><feComposite operator="in" in2="b"/><feComposite in="SourceGraphic"/></filter></defs><g class="b" transform="matrix(1, 0, 0, 1, 0, 0)"><path class="a" d="M27.375,3.375a24,24,0,1,0,24,24A24,24,0,0,0,27.375,3.375Zm5.008,33.358a2.236,2.236,0,0,1,0,3.15,2.2,2.2,0,0,1-1.569.646,2.238,2.238,0,0,1-1.581-.658L18.387,28.99a2.224,2.224,0,0,1,.069-3.069L29.463,14.879a2.227,2.227,0,0,1,3.15,3.15l-9.45,9.346Z" transform="translate(1.13 -1.88)"/></g></svg>